<?xml version="1.0" ?><svg xmlns="http://www.w3.org/2000/svg" width="94.71067mm" height="116.18294mm" viewBox="0 0 94.71067 116.18294">
    <path d="m 3723.1784,5400.3598 c -211.4654,-13.5182 -70.2929,-328.345 -47.527,-379.8833 22.7661,-51.5381 101.9776,-73.6109 143.637,25.3467 41.6594,98.9576 92.9414,329.4012 -96.11,354.5366 z" color="#000" overflow="visible" fill="#d0e071" paint-order="fill markers stroke" transform="translate(-57.092984,-6.0924171) matrix(0.26458333,0,0,0.26458333,1726.8863,-7365.1453) matrix(0.93068421,0.5286616,-0.5286616,0.93068421,-6848.973,21275.906)"/>
    <path d="m 3599.6774,5306.4315 c -9.161,-27.9406 -4.9476,-88.0969 2.9179,-122.3896 12.5701,-54.8033 58.0707,-168.6473 82.8429,-198.1945 30.4346,-39.7092 95.9333,-19.7367 113.6053,7.5442 4.0371,6.6431 13.9432,33.0082 20.5053,42.6893 11.7287,17.3037 29.9414,53.7952 45.4431,105.805 5.6574,18.9808 7.9294,41.867 8.0816,81.4096 0.1937,50.5942 -0.819,57.6543 -12.641,88.0105 -22.9856,59.0228 -70.1411,94.0435 -138.9649,103.2045 -85.6461,-5.0413 -107.4216,-64.2578 -121.7902,-108.079 z m 168.1366,75.2225 c 43.2284,-18.5297 59.7225,-38.6977 79.5314,-97.2489 12.2004,-36.061 13.0449,-58.8455 4.0798,-110.039 -11.562,-66.0165 -49.2256,-157.227 -73.2837,-177.4704 -15.5537,-13.0876 -44.0158,-18.2938 -61.1681,-11.1891 -15.0331,6.2266 -32.472,32.0415 -56.5208,83.6697 -34.4711,74.0023 -52.0573,144.0458 -46.8837,186.7348 7.8722,64.9596 19.6555,91.8547 51.1495,116.7493 21.1291,16.7014 23.9582,17.6549 52.3791,17.6549 20.3344,0 36.7249,-2.8634 50.7165,-8.8613 z m -68.2583,-48.8559 c -25.5676,-10.2013 -38.623,-31.3815 -42.3379,-68.6872 -8.6761,-56.7404 45.5432,-80.3126 85.3855,-83.8608 42.2824,3.0249 59.155,13.8612 71.039,45.6237 11.1927,29.9152 11.1786,38.4804 -0.1012,63.3508 -11.3627,25.0491 -19.956,34.4513 -38.6142,42.2472 -16.9667,7.0893 -59.0699,7.8299 -75.3704,1.3263 z m 70.8822,-19.5837 c 14.59,-7.5446 29.9839,-36.0037 30.1427,-55.7255 0.053,-6.6069 -3.0157,-19.7904 -6.8195,-29.2973 -5.5903,-13.9717 -11.0189,-19.0499 -28.3191,-26.4921 -40.0852,-20.5099 -90.8633,23.0738 -92.3802,60.043 0,19.0657 14.1481,46.58 27.175,52.8476 15.2087,7.3167 54.8952,6.5396 70.2011,-1.3757 z" fill="#050402" transform="translate(-57.092984,-6.0924171) matrix(0.26458333,0,0,0.26458333,1726.8863,-7365.1453) matrix(0.93068421,0.5286616,-0.5286616,0.93068421,-6848.973,21275.906)"/>
    <g>
        <path d="m -9711.1245,22774.13 c -79.273,-2.621 -92.907,-54.148 -68.539,-109.312 24.367,-55.164 118.506,-54.315 134.514,-13.872 42.294,106.856 -13.291,118.885 -65.975,123.184 z" color="#000" overflow="visible" fill="#d69569" paint-order="fill markers stroke" transform="translate(-57.092984,-6.0924171) matrix(0.26458333,0,0,0.26458333,1726.8863,-7365.1453) rotate(29.59811,-18241.51,32161.637)"/>
        <path d="m -9752.3455,22777.425 c -27.367,-10.919 -41.341,-33.589 -45.317,-73.52 -9.286,-60.732 48.747,-85.962 91.393,-89.76 45.257,3.238 63.317,14.836 76.037,48.833 11.98,32.02 11.965,41.188 -0.109,67.808 -12.162,26.811 -21.36,36.875 -41.331,45.219 -23.043,4.582 -59.256,9.165 -80.673,1.42 z m 75.869,-20.961 c 15.616,-8.076 32.093,-38.537 32.263,-59.646 0.06,-7.072 -3.228,-21.183 -7.299,-31.359 -5.984,-14.955 -11.794,-20.39 -30.312,-28.356 -42.905,-21.953 -97.256,24.697 -98.879,64.267 0,20.407 15.143,49.858 29.087,56.566 16.278,7.832 58.757,7 75.14,-1.472 z" fill="#050402" transform="translate(-57.092984,-6.0924171) matrix(0.26458333,0,0,0.26458333,1726.8863,-7365.1453) rotate(29.59811,-18241.51,32161.637)"/>
    </g>
</svg>