<?xml version="1.0" ?><svg xmlns="http://www.w3.org/2000/svg" width="114.1797mm" height="106.18244mm" viewBox="0 0 114.1797 106.18244">
    <path d="m 1214.4349,614.14119 c -0.84,0.007 -1.6639,0.0491 -2.454,0.12091 -6.3214,0.57491 -16.0763,5.30982 -14.5081,15.52257 1.5674,10.21276 12.4396,10.37868 20.5763,9.83404 7.5817,-0.89263 11.9021,-12.34543 10.322,-18.47279 -1.3827,-5.36146 -8.055,-7.05127 -13.9362,-7.00473 z" fill="#fff" paint-order="markers stroke fill" transform="translate(90.548839,-43.154956) translate(-1228.0148,-562.70869)"/>
    <path d="m 1197.868,615.322 c -1.3694,-0.009 -3.1408,0.49472 -5.2368,1.75233 -6.708,4.02442 -29.5852,25.07094 -34.0569,31.12268 -4.4718,6.0517 -14.1045,8.98718 -17.3996,15.58353 -3.2948,6.59638 2.7234,17.53471 8.1537,20.06132 0.3387,-5.83817 15.1439,-18.62574 25.214,-24.25383 10.0698,-5.62811 34.4958,-8.04775 43.5739,-8.41087 9.0779,-0.36308 11.8185,3.57069 17.8031,3.64631 5.9846,0.0756 10.9773,-5.06831 8.7415,-11.08978 -2.236,-6.02146 -29.9741,-2.07287 -36.9842,-1.7854 -7.0102,0.28741 -8.2206,-4.07099 -10.759,-7.95922 -2.5384,-3.88821 0.8911,-10.16691 3.3454,-13.70717 1.6875,-2.43393 0.6178,-4.93942 -2.3951,-4.9599 z" fill="#e53b3b" paint-order="markers stroke fill" transform="translate(90.548839,-43.154956) translate(-1228.0148,-562.70869)"/>
    <path d="m 1164.3436,691.51841 c -8.6743,-9.31965 -9.0983,-12.975 -5.854,-21.43227 3.2446,-8.45728 26.4774,-17.38355 38.1611,-19.2142 11.6835,-1.83066 28.7131,-2.08783 30.8986,0.95316 2.1854,3.04096 9.33,20.30349 2.3534,33.75342 -6.9765,13.44996 -21.5061,22.26958 -33.0047,22.31498 -11.4988,0.0454 -32.5544,-16.37509 -32.5544,-16.37509 z" fill="#fcd6c6" paint-order="markers stroke fill" transform="translate(90.548839,-43.154956) translate(-1228.0148,-562.70869)"/>
    <path d="m 1213.827,605.8647 c -7.4708,0.0523 -15.9401,2.01388 -23.485,5.72681 -9.9391,4.89087 -23.4061,17.52941 -27.9725,26.25161 -2.8705,5.4823 -4.4315,7.04329 -8.668,8.6615 -2.8419,1.08533 -7.4838,4.02786 -10.3138,6.53913 -4.5066,3.99957 -5.2207,5.35247 -5.7541,10.90581 -0.4699,4.88915 0,7.55221 2.0232,11.64166 3.0015,6.0483 10.205,12.06074 14.4513,12.06074 1.5806,0 2.8742,0.60127 2.8742,1.33586 0,1.94527 14.2312,14.66649 19.0718,17.65808 11.4434,6.44455 27.8207,7.08608 39.0848,2.1115 10.873,-5.08 21.5076,-15.65933 23.4277,-26.24775 0.6051,-3.33642 1.5054,-4.62777 3.4202,-4.91339 6.4956,-0.96827 5.3451,-8.3747 -1.3015,-8.3747 -2.699,0 -3.4898,-0.81335 -4.764,-4.89582 -1.9741,-6.32555 -1.9273,-7.80711 0.223,-6.98198 2.6196,1.0052 10.3664,-1.46963 13.0723,-4.17597 3.5311,-3.53108 3.1541,-10.18935 -0.7514,-13.26174 -1.7214,-1.35387 -4.7779,-2.8243 -6.7935,-3.26697 -3.4083,-0.74853 -3.61,-1.09784 -2.8779,-5.00023 1.6812,-8.9622 -3.3348,-18.92723 -11.6488,-23.14276 -3.5623,-1.80628 -8.2066,-2.66689 -13.318,-2.63139 z m 0.07,10.68928 c 0.9313,0 1.8531,0.1288 2.7498,0.35451 4.1672,1.04593 10.3751,6.71558 10.3751,9.47693 0,5.5826 -3.2893,9.14577 -9.8367,10.65673 -8.2269,1.89928 -8.5082,1.87962 -13.2022,-0.98238 -3.8499,-2.34756 -4.554,-3.95694 -4.0354,-9.22993 0.5543,-5.63343 7.4335,-10.38241 13.9494,-10.27586 z m -16.9238,2.73214 c 0,0.042 0.08,0.003 0.1151,0.0103 v 0.002 c 0.07,0.0154 0.1259,0.0458 0.1685,0.0894 0.2611,0.26125 -0.1257,1.59036 -0.8549,2.95537 -2.3333,4.35972 -1.5697,10.76738 1.7516,14.71435 l 3.0771,3.65921 -8.9146,2.69285 c -19.8872,6.00735 -40.4712,20.47383 -42.3252,29.74496 -0.9006,4.50358 -2.2775,4.35264 -3.9454,-0.43201 -3.1483,-9.03187 -1.1944,-12.46809 11.6422,-20.47732 3.4282,-2.13929 9.997,-8.07892 14.597,-13.19866 6.8549,-7.62889 21.634,-19.403 24.5526,-19.74712 0.048,-0.009 0.136,-0.0554 0.136,-0.0134 z m 21.4987,1.17358 c -0.7623,-0.0348 -1.6253,0.3614 -2.8813,1.18441 -1.9741,1.29363 -3.4811,1.5049 -4.9321,0.693 -1.1486,-0.64297 -2.5736,-0.86942 -3.1676,-0.50231 -1.8992,1.17377 -2.8408,9.35275 -1.292,11.21896 1.7711,2.13408 3.9235,1.15787 3.6193,-1.88052 -0.2489,-2.48601 -0.3078,-5.2017 2.5146,-1.61282 1.0083,1.28221 3.1093,-0.15656 4.1145,-1.53168 1.4708,-2.01144 1.7113,-1.87499 2.9522,1.68466 1.3624,3.90832 3.1382,4.92921 4.5641,2.62205 1.0334,-1.67257 -1.5285,-9.23322 -3.7563,-11.082 -0.6099,-0.50607 -1.1422,-0.77422 -1.7354,-0.79375 z m 24.5221,26.49395 c 0,2.26364 -7.171,3.77825 -11.2149,2.36833 -2.4606,-0.85751 -8.5413,-1.04949 -16.896,-0.53226 -7.1782,0.44442 -14.2952,1.14086 -15.8155,1.54771 -1.5208,0.4068 -2.7649,0.44492 -2.7649,0.0837 -0.2147,0.41698 45.3286,-15.20456 46.6913,-3.46748 z m -19.7429,8.74162 v 0.0103 c 3.0982,0 4.2803,2.48905 5.316,9.22905 0.4256,2.76984 0.068,5.19967 0.068,5.19967 -7.0691,0.72007 -9.6159,4.11433 -9.513,6.06876 0.1817,3.44941 8.7201,2.60376 9.7374,2.46776 l 0.01,1.60899 c 0,0.79439 0.205,1.22936 -0.4705,1.22936 -3.6845,-2.047 -8.2687,-2.40773 -12.7272,-2.10891 -3.611,0.24207 -9.3898,0.62212 -16.4219,-1.03404 -8.4728,-1.99541 -9.175,-1.9956 -12.1851,-0.0346 -3.7256,2.44128 -3.6052,6.06671 0.2225,6.61458 1.4449,0.2055 2.9257,1.52106 3.2919,2.92127 0.6729,2.57291 3.5693,2.42083 6.8533,-0.1297 1.4888,-1.21881 3.7914,0.21664 3.7914,1.75543 0,1.65269 1.3111,3.25424 3.71,1.56943 2.8837,-2.02544 4.1173,-0.61022 5.0647,1.08881 1.4689,2.63439 3.1684,2.04806 6.1195,-1.34617 2.2188,-2.55204 2.9814,-2.62009 5.0028,-0.97256 3.2681,2.54281 2.4074,1.6537 -0.4562,4.79351 -2.1164,2.32063 -6.2113,5.14395 -8.9437,6.41874 -11.8454,5.52513 -25.9223,3.60497 -37.4684,-5.1103 -11.9946,-9.05345 -16.0052,-14.81333 -13.5337,-19.43187 1.7317,-3.23538 3.2234,-2.98516 4.1471,0.69504 0.4241,1.68928 1.5295,3.07062 2.4582,3.07062 0.9284,0 2.0071,0.82923 2.3958,1.84277 0.3889,1.01391 1.5359,1.8433 2.5472,1.8433 3.1506,0 4.7336,-4.80031 3.9057,-11.84476 -0.7662,-6.5223 -0.7559,-6.55117 3.3388,-8.26202 8.7141,-3.64116 9.7499,-3.74073 8.8305,-0.84388 -0.4779,1.50537 -0.1876,3.42066 0.6768,4.46174 1.2994,1.56528 2.0968,1.18753 5.6298,-2.66959 3.5457,-3.87069 4.6432,-4.38811 7.9198,-3.73261 3.1228,0.6245 3.9183,0.32059 4.4442,-1.69032 0.3401,-1.30056 -2.5895,-2.5371 2.3173,-2.40723 0.9418,0.0249 2.565,-0.38585 1.4154,1.46466 -0.4461,0.71804 1.075,1.70508 2.7646,1.94717 1.6894,0.24379 3.5986,0.94568 4.2405,1.56424 1.6079,1.5489 5.5909,1.41698 5.5909,-0.18449 0,-0.71996 -0.5731,-2.37892 -1.2729,-3.68607 -1.0599,-1.98075 1.1846,-2.36578 1.1846,-2.37609 z m -10.4971,8.79224 c -2.1524,-0.0418 -3.51,2.69406 -2.4908,5.34953 0.3887,1.01356 1.8666,1.84279 3.2845,1.84277 2.0852,0 2.5033,-0.64416 2.1887,-3.36929 -0.2331,-2.03443 -1.2412,-3.52993 -2.5416,-3.77653 -0.1498,-0.0348 -0.2995,-0.0449 -0.4408,-0.0449 z m -11.4152,1.04746 c -2.9747,0 -4.5646,4.3657 -2.4961,6.85747 1.7489,2.10756 3.5325,1.79337 5.2483,-0.92655 1.6711,-2.64956 0.15,-5.93092 -2.7522,-5.93092 z m -17.8663,25.69037 c -1.7724,2.86827 0.5461,7.60558 4.5797,9.35963 5.03,2.18665 7.2242,2.2224 10.0468,0.15659 2.853,-2.08601 1.4816,-4.48705 -2.563,-4.48705 -3.5613,0 -7.4957,-2.32696 -9.4372,-4.9598 -0.9443,-1.09091 -1.8446,-1.31547 -2.6263,-0.0694 z" transform="translate(90.548839,-43.154956) translate(-1228.0148,-562.70869)"/>
</svg>