<?xml version="1.0" ?><svg xmlns="http://www.w3.org/2000/svg" width="44.968758mm" height="53.980812mm" viewBox="0 0 44.968758 53.980812">
    <path d="m 5884.9828,2662.0176 c 0.7788,-2.8032 11.4864,-5.1686 19.2154,-5.2038 7.7289,-0.035 17.1906,1.0163 18.1056,12.0896 0.915,11.0731 0.6035,27.5603 0.6035,27.5603 0,0 -11.0581,8.8832 -21.6878,8.7077 -10.6297,-0.1751 -18.5923,-7.4112 -18.5923,-7.4112 0,0 -1.869,-30.5565 2.3556,-35.7426 z" color="#000" overflow="visible" fill="#fff" paint-order="fill markers stroke" transform="translate(-194.37934,-139.8914) translate(-5685.8496,-2514.586)"/>
    <path d="m 5884.9828,2662.0177 c -0.362,5.5393 3.0758,9.0326 6.1587,10.5894 3.0829,1.5568 15.6361,2.2556 20.4491,0.5789 4.8128,-1.6767 9.7364,-5.3893 9.7364,-5.3893 0,0 2.4619,8.3833 2.2402,13.6128 -0.2217,5.2298 2.6615,15.8086 -7.6517,19.4416 -10.3135,3.6327 -32.044,6.2336 -33.2883,-3.0909 -1.2446,-9.3247 -0.5128,-22.0194 -0.3575,-25.273 0.1553,-3.2535 -0.1188,-6.7275 2.7131,-10.4695 z" fill="#ed7e3d" paint-order="markers stroke fill" transform="translate(-194.37934,-139.8914) translate(-5685.8496,-2514.586)"/>
    <path d="m 5899.0861,2665.6286 c -4.5455,-2.3998 -3.9193,-3.1256 -0.1138,-4.0394 3.8053,-0.9139 13.1144,0.7172 13.0575,3.0572 -0.057,2.3403 -3.6629,3.8944 -5.9881,3.3224 -2.3249,-0.5723 -6.9556,-2.3402 -6.9556,-2.3402 z" fill="#a2ca66" paint-order="markers stroke fill" transform="translate(-194.37934,-139.8914) translate(-5685.8496,-2514.586)"/>
    <path d="m 5888.7496,2705.9369 c -7.563,-3.7746 -8.6526,-6.3169 -8.509,-19.8522 0.1245,-11.7557 1.1126,-18.9236 3.1623,-18.6987 0.572,0.066 1.4635,2.7766 1.7716,4.7856 0.4347,2.8355 1.0947,3.6539 2.9477,3.652 1.4949,0 2.321,0.6056 2.2096,1.6235 -0.098,0.894 -0.6984,1.5682 -1.3346,1.4988 -0.6361,-0.066 -0.9066,0.398 -0.6011,1.0391 0.8463,1.7766 2.2567,1.5697 3.2395,-0.4744 0.4859,-1.0105 1.237,-2.4202 1.6692,-3.1332 0.4869,-0.8025 -0.034,-1.3854 -1.3685,-1.5309 -1.1848,-0.1304 -3.2109,-1.3113 -4.5022,-2.6255 -1.8512,-1.883 -2.0351,-2.6442 -0.8696,-3.5959 1.1534,-0.9422 2.3834,-0.825 5.5962,0.5339 4.825,2.0399 13.102,3.1501 13.2523,1.7775 0.058,-0.5244 -1.7191,-1.4528 -3.9477,-2.0643 -5.2525,-1.4396 -10.6073,-5.1295 -8.721,-6.668 1.2896,-1.0515 5.3945,-2.8181 15.0984,-1.8444 4.1065,0.4119 7.6909,4.0108 5.6929,6.9286 -1.5694,2.2916 -1.0826,2.5792 2.157,1.2764 3.1231,-1.2558 3.1837,-4.7424 0.1264,-7.2613 -2.1239,-1.7494 -4.1531,-2.1608 -11.6026,-2.3537 -10.0042,-0.258 -16.8607,1.4608 -17.8221,5.1745 -0.8883,3.4321 -4.1546,2.2063 -3.7569,-1.4259 0.4794,-4.3807 7.6684,-6.8098 15.3398,-7.751 12.757,-1.5647 21.062,0.7919 24.1487,6.8538 1.8018,3.5372 3.2966,16.8283 3.0438,27.0637 -0.1882,7.6213 -0.4088,8.3548 -3.4891,11.5917 -7.4553,7.834 -23.025,10.4254 -32.931,5.4803 z m 8.3739,-5.7539 c 1.3107,-2.5466 0.199,-3.7372 -3.2062,-3.4356 -5.6221,0.4979 -6.9669,-6.935 -1.4552,-8.0423 3.0228,-0.6075 5.1047,1.1139 2.6212,2.1672 -2.4035,1.0192 -2.6374,2.8197 -0.3984,3.0644 2.2593,0.2474 5.4865,-2.3931 4.7682,-3.901 -0.7267,-1.5253 0.979,-5.4171 2.3104,-5.2721 0.5602,0.057 0.9321,0.9014 0.8264,1.8674 -0.1217,1.1108 0.434,1.5902 1.515,1.305 1.0501,-0.276 1.6383,0.1799 1.5277,1.1901 -0.099,0.9014 -1.334,1.9629 -2.7451,2.3582 -1.4109,0.3958 -2.1651,0.7943 -1.6758,0.8861 0.4892,0.092 0.033,0.8551 -1.0146,1.6957 -2.3992,1.9256 -2.6872,3.9317 -0.4811,3.3504 1.9541,-0.5143 3.2137,1.3647 1.4713,2.1947 -0.6518,0.3104 -1.2424,1.0867 -1.3123,1.7259 -0.082,0.7475 0.4906,0.7535 1.6077,0.019 0.9543,-0.6302 2.2174,-0.7694 2.807,-0.3098 0.5896,0.4601 2.0323,0.6437 3.2061,0.4072 2.4313,-0.4884 2.4609,-4.7374 0.035,-5.0027 -3.2731,-0.3583 -2.531,-6.0582 0.9066,-6.9631 1.2968,-0.3413 1.5512,0.2561 1.0658,2.5019 -0.4972,2.299 -0.2086,2.9245 1.3085,2.8379 1.1544,-0.066 1.8714,0.5744 1.7619,1.574 -0.2607,2.3821 1.9289,2.3286 5.1929,-0.1278 3.5892,-2.7019 3.6355,-3.6538 0.1643,-3.376 -2.3246,0.186 -2.7416,-0.1969 -2.5106,-2.3072 0.2154,-1.968 0.5363,-2.2072 1.444,-1.0763 2.1304,2.654 2.9083,1.7039 3.5723,-4.3617 0.5778,-5.2787 0.3926,-6.0362 -1.527,-6.246 -2.7672,-0.3024 -2.5438,-4.1317 0.3151,-5.4033 3.9026,-1.7354 0.9029,-1.0639 -4.724,1.057 -3.1193,1.1763 -6.6947,2.0323 -7.9454,1.9045 -4.1582,-0.4284 -7.1889,0.4789 -6.781,2.028 0.7511,2.8538 -2.3591,5.7978 -5.7337,5.4287 -2.4112,-0.2635 -3.0918,0.074 -2.7507,1.3713 0.5877,2.2321 -2.0289,4.7371 -4.6493,4.4506 -2.692,-0.2942 -2.7723,1.3044 -0.2145,4.2701 1.1362,1.3168 1.6781,2.8922 1.2038,3.4997 -0.9502,1.2178 2.6353,3.4996 6.3042,4.0113 1.2831,0.1797 2.7184,-0.4236 3.1896,-1.3383 z m 12.3059,-15.0842 c -1.7612,-2.6662 0.1593,-4.1357 2.2213,-1.6989 1.7174,2.0286 1.63,3.7304 -0.1814,3.532 -0.4918,-0.058 -1.4097,-0.879 -2.0399,-1.8331 z m 7.7901,-0.8535 c 0.1315,-1.2015 0.7306,-2.131 1.3313,-2.0651 0.6008,0.066 0.9847,1.1028 0.8532,2.304 -0.1316,1.2015 -0.7306,2.131 -1.3313,2.0651 -0.6007,-0.066 -0.9847,-1.1025 -0.8532,-2.304 z m -14.6733,-2.8075 c -0.3321,-0.6972 -0.048,-1.7148 0.6323,-2.2601 0.8405,-0.6749 1.5499,-0.2127 2.2162,1.4444 0.7907,1.9661 0.6688,2.4019 -0.6324,2.2595 -0.8868,-0.097 -1.8841,-0.7466 -2.2161,-1.4438 z m -14.0822,2.9755 c 0.1329,-1.2129 -0.4891,-2.2635 -1.3992,-2.3633 -0.9101,-0.099 -1.7446,0.7911 -1.8773,2.0048 -0.1328,1.2139 0.489,2.2646 1.3992,2.3632 0.9101,0.1001 1.7445,-0.7908 1.8773,-2.0047 z m -1.7062,-4.608 c 0.066,-0.5998 -0.3719,-1.1454 -0.9726,-1.2112 -0.6007,-0.066 -1.146,0.3714 -1.2117,0.9723 -0.066,0.6009 0.3719,1.1462 0.9726,1.2123 0.6006,0.066 1.1459,-0.3728 1.2117,-0.9734 z m 8.9719,-0.4268 c 0.01,-1.3208 -1.5179,-1.2321 -2.1414,0.1252 -0.3192,0.6937 0.031,1.1308 0.7782,0.9692 0.7471,-0.1617 1.3605,-0.6533 1.3632,-1.0944 z m 13.5595,-13.5625 c 0.1477,-1.3491 -6.9683,-3.3721 -9.8358,-2.7961 -1.8599,0.3741 -2.0625,0.712 -0.9553,1.5962 1.8435,1.4708 10.6542,2.4506 10.7911,1.1999 z" fill="#030303" transform="translate(-194.37934,-139.8914) translate(-5685.8496,-2514.586)"/>
</svg>